# xmcd
#
# Track frame offsets: 
#        150
#        11739
#        28636
#        40190
#        53938
#        68153
#        81253
#        94026
#        105851
#        116485
#        128150
#        139523
#        154239
#        158729
#
# Disc length: 2299 seconds
#
# Revision: 0
# Processed by: cddbd v1.5.2PL0 Copyright (c) Steve Scherf et al.
# Submitted via: ExactAudioCopy v1.3
#
DISCID=ab08f90e
DTITLE=Doghouse Sam and His Magnatones - Knock Knock
DYEAR=2014
DGENRE=Blues, Western Swing
TTITLE0=Something Wrong
TTITLE1=Kings and Queens
TTITLE2=Knock Knock
TTITLE3=Road
TTITLE4=All It Takes
TTITLE5=All I Need Outta You
TTITLE6=Doghouse Boogie
TTITLE7=Time Takes Care
TTITLE8=Ce Qui Est Fait, Est Fait
TTITLE9=Scratch A Lie
TTITLE10=You Snooze, You Lose
TTITLE11=Fine Ain't Good Enough
TTITLE12=Tell A Tale
TTITLE13=Walking Stardust
EXTD=
EXTT0=
EXTT1=
EXTT2=
EXTT3=
EXTT4=
EXTT5=
EXTT6=
EXTT7=
EXTT8=
EXTT9=
EXTT10=
EXTT11=
EXTT12=
EXTT13=
PLAYORDER=
